<svg width="21" height="24" viewBox="0 0 21 24">
<path d="M19.9089 12.1505C19.6609 11.073 18.7795 10.2782 17.7187 10.1599C15.2072 9.8793 12.6639 9.87798 10.1331 9.8793C7.60122 9.87798 5.05848 9.8793 2.54618 10.1599C1.48589 10.2784 0.605049 11.0733 0.357312 12.1505C0.00423479 13.6848 0 15.3597 0 16.9395C0 18.5194 3.15518e-08 20.194 0.353077 21.7283C0.600814 22.8055 1.48165 23.6004 2.54247 23.7189C5.05425 23.9997 7.59699 24.0008 10.1286 23.9997C12.6605 24.0011 15.2027 23.9997 17.7153 23.7189C18.7756 23.6004 19.6569 22.8055 19.9047 21.7283C20.2575 20.194 20.2593 18.5194 20.2593 16.9395C20.2591 15.3594 20.2617 13.6848 19.9089 12.1505ZM5.77866 13.3397H4.31236V21.1312H2.95034V13.3397H1.51077V12.0634H5.77866V13.3397ZM9.47804 21.1315H8.25285V20.3943C7.76612 20.9523 7.30399 21.2244 6.85378 21.2244C6.45915 21.2244 6.18759 21.0645 6.06504 20.7223C5.99835 20.5179 5.95706 20.1945 5.95706 19.7176V14.3748H7.18118V19.3494C7.18118 19.6363 7.18118 19.7853 7.1923 19.8255C7.22168 20.0156 7.31458 20.1119 7.47868 20.1119C7.7243 20.1119 7.98103 19.9227 8.25259 19.5386V14.3748H9.47777L9.47804 21.1315ZM14.1292 19.1035C14.1292 19.7284 14.0871 20.1786 14.0053 20.465C13.8417 20.9676 13.5143 21.2244 13.0273 21.2244C12.5917 21.2244 12.1714 20.9824 11.7619 20.4769V21.1317H10.5378V12.0634H11.7619V15.0249C12.1573 14.5381 12.5771 14.292 13.0273 14.292C13.5143 14.292 13.842 14.5484 14.0053 15.0542C14.0876 15.3261 14.1292 15.7728 14.1292 16.4126V19.1035ZM18.7496 17.9763H16.3011V19.1739C16.3011 19.7993 16.5057 20.1117 16.9265 20.1117C17.228 20.1117 17.4035 19.9478 17.4734 19.6207C17.4847 19.5543 17.5009 19.2822 17.5009 18.7912H18.7499V18.9698C18.7499 19.3645 18.7348 19.6363 18.7237 19.7586C18.6827 20.0296 18.5863 20.2755 18.4378 20.492C18.0988 20.9827 17.5964 21.2246 16.957 21.2246C16.3165 21.2246 15.8289 20.9941 15.4751 20.5328C15.2154 20.1945 15.082 19.662 15.082 18.9439V16.5774C15.082 15.8551 15.2003 15.3269 15.4605 14.9854C15.8141 14.523 16.3014 14.2928 16.9268 14.2928C17.5411 14.2928 18.0281 14.523 18.3711 14.9854C18.6276 15.3269 18.7502 15.8551 18.7502 16.5774V17.9763H18.7496Z"/>
<path d="M16.9157 15.3943C16.5065 15.3943 16.3014 15.7069 16.3014 16.3315V16.9567H17.5255V16.3315C17.5252 15.7069 17.3207 15.3943 16.9157 15.3943Z"/>
<path d="M12.3723 15.3943C12.1706 15.3943 11.9663 15.4896 11.7617 15.692V19.8101C11.966 20.015 12.1706 20.1119 12.3723 20.1119C12.7253 20.1119 12.9048 19.8101 12.9048 19.2001V16.3162C12.9048 15.7069 12.7253 15.3943 12.3723 15.3943Z"/>
<path d="M13.0562 9.25654C13.5075 9.25654 13.977 8.98233 14.4696 8.41804V9.16284H15.707V2.33447H14.4696V7.55335C14.1954 7.94083 13.9355 8.13246 13.688 8.13246C13.5223 8.13246 13.4249 8.03453 13.3979 7.84264C13.3828 7.80214 13.3828 7.65154 13.3828 7.36172V2.33447H12.1494V7.73386C12.1494 8.2161 12.1907 8.54244 12.259 8.74915C12.3834 9.09508 12.6579 9.25654 13.0562 9.25654Z"/>
<path d="M4.44228 5.45179V9.16281H5.81436V5.45179L7.46488 0H6.07745L5.14129 3.59827L4.16729 0H2.72348C3.01277 0.849344 3.31371 1.70292 3.603 2.55306C4.04315 3.83092 4.31789 4.79434 4.44228 5.45179Z"/>
<path d="M9.30389 9.25635C9.92377 9.25635 10.4055 9.02317 10.7472 8.55734C11.0068 8.21565 11.1312 7.6773 11.1312 6.95156V4.56048C11.1312 3.8305 11.0071 3.29691 10.7472 2.95204C10.4055 2.48489 9.92403 2.25171 9.30389 2.25171C8.6872 2.25171 8.20576 2.48489 7.86326 2.95204C7.60044 3.29691 7.47604 3.8305 7.47604 4.56048V6.95156C7.47604 7.6773 7.60044 8.21565 7.86326 8.55734C8.20549 9.02317 8.6872 9.25635 9.30389 9.25635ZM8.7134 4.31247C8.7134 3.68069 8.90503 3.36573 9.30389 3.36573C9.70276 3.36573 9.89386 3.68043 9.89386 4.31247V7.18473C9.89386 7.81652 9.70276 8.13254 9.30389 8.13254C8.90503 8.13254 8.7134 7.81652 8.7134 7.18473V4.31247Z"/>
</svg>
