<svg viewBox="0 0 126 18"  xmlns="http://www.w3.org/2000/svg">
    <path class="fill-red" d="M58.0329 0.520996H51.8624L46.2782 6.44655V0.520996H40.6477V16.8535H46.2782V12.8188L47.5586 11.4416L51.7853 16.8535H54.832L56.1432 13.9652L51.284 7.70462L58.0329 0.520996Z"/>
    <path class="fill-red" d="M69.8337 14.0098H63.401L62.2672 16.8535H56.467L63.8638 0.520996H69.4712L76.868 16.8535H70.9598L69.8337 14.0098ZM68.2911 10.0421L66.6174 5.95524L64.9745 10.0644L68.2911 10.0421Z"/>
    <path class="fill-red" d="M92.9035 16.8535L92.8572 9.40933L89.1781 15.3647H86.6637L82.9923 9.67732V16.8609H77.7937V0.520996H82.4832L87.998 9.22323L93.3277 0.520996H98.025L98.0713 16.8535H92.9035Z"/>
    <path class="fill-red" d="M100.855 0.520996H106.563V16.8535H100.855V0.520996Z"/>
    <path class="fill-red" d="M126 0.520996V16.8535H121.31L114.878 9.40933V16.8535H109.317V0.520996H114.014L120.439 7.96517V0.520996H126Z"/>
    <path class="fill-black" d="M3.08533 16.6525C2.13997 16.2315 1.33765 15.5604 0.771425 14.7171C0.244026 13.871 -0.0234595 12.8977 0.000122353 11.9106C-0.0336381 11.1273 0.133081 10.3481 0.48554 9.64177C0.837999 8.93545 1.36534 8.32383 2.02094 7.86098C3.51049 6.83742 5.30713 6.31434 7.13467 6.37215C8.09104 6.37029 9.04412 6.48027 9.97307 6.69969C10.6752 6.85332 11.3506 7.10405 11.9785 7.44411V6.46892C12.0012 5.91509 11.8936 5.36348 11.6638 4.85551C11.4341 4.34753 11.0881 3.89638 10.6518 3.53592C9.71219 2.78238 8.51746 2.39006 7.29665 2.43418C6.38764 2.42256 5.48965 2.62709 4.68193 3.02972C3.90658 3.40189 3.25071 3.97057 2.78452 4.67488L0.663443 3.14138C1.33968 2.14442 2.28691 1.34609 3.40157 0.833688C4.60416 0.267371 5.92782 -0.0182237 7.26579 -5.87907e-05C9.2298 -0.105115 11.1612 0.518014 12.6649 1.74188C13.3327 2.34914 13.8564 3.08874 14.1999 3.90987C14.5434 4.731 14.6986 5.61417 14.6549 6.4987V16.8461H11.9785V14.5086H11.8473C11.3047 15.3482 10.5512 16.0421 9.65683 16.526C8.65997 17.0858 7.52434 17.374 6.37108 17.3597C5.23375 17.3739 4.10868 17.1317 3.08533 16.6525ZM9.32517 14.2481C10.1329 13.7898 10.8049 13.1387 11.2766 12.3573C11.762 11.5748 12.0154 10.6787 12.0093 9.76669C11.3967 9.39246 10.7281 9.11127 10.0271 8.93294C9.22851 8.7184 8.40322 8.61069 7.57431 8.61284C6.33114 8.52711 5.09511 8.85556 4.0726 9.54336C3.6962 9.8284 3.39364 10.194 3.18883 10.6113C2.98402 11.0286 2.88258 11.4862 2.89251 11.9478C2.87584 12.3685 2.96295 12.7869 3.14667 13.1687C3.33038 13.5505 3.60544 13.8848 3.94919 14.1439C4.71722 14.7105 5.66759 14.9978 6.63333 14.9553C7.57056 14.9582 8.49078 14.7137 9.29432 14.2481H9.32517Z"/>
    <path class="fill-black" d="M17.9558 0.603057H20.6399V3.30529H20.7711C21.1635 2.35934 21.8793 1.57134 22.7996 1.07204C24.1203 0.363034 25.6533 0.113374 27.142 0.364843V3.14896C26.6346 3.04981 26.1169 3.00734 25.5994 3.02241C24.9489 2.99785 24.3005 3.10805 23.6978 3.3456C23.0951 3.58315 22.5521 3.94254 22.1054 4.39958C21.1822 5.37369 20.6968 6.66131 20.7556 7.98023V16.8462H17.9558V0.603057Z"/>
    <path class="fill-black" d="M34.0762 16.7792C33.5284 16.593 33.0267 16.299 32.603 15.9157C32.1716 15.5233 31.8369 15.0425 31.6234 14.5087C31.384 13.8826 31.2714 13.218 31.2918 12.5509V2.97769H29.3635V0.513672H38.2104V2.97769H34.0916V11.9107C34.0358 12.6118 34.223 13.311 34.6238 13.8983C34.8566 14.1373 35.141 14.324 35.4569 14.4449C35.7729 14.5659 36.1126 14.6181 36.4518 14.598C37.1126 14.593 37.758 14.4043 38.3106 14.0546V16.7122C37.9893 16.8599 37.6498 16.9674 37.3002 17.0323C36.8673 17.1045 36.4283 17.1369 35.989 17.1291C35.3346 17.1268 34.6861 17.0082 34.0762 16.7792Z"/>
    <path class="fill-red" d="M26.3939 11.3225C26.3939 11.3225 23.679 13.1166 23.679 15.5731C23.7649 16.2054 24.0862 16.786 24.5829 17.2066C25.0796 17.6271 25.7178 17.8591 26.3785 17.8591C27.0393 17.8591 27.6775 17.6271 28.1742 17.2066C28.6708 16.786 28.9921 16.2054 29.0781 15.5731C29.1089 13.1166 26.3939 11.3225 26.3939 11.3225ZM26.3939 16.8461C26.2495 16.8557 26.1046 16.8357 25.9688 16.7874C25.8329 16.7391 25.7092 16.6636 25.6058 16.5659C25.5023 16.4681 25.4215 16.3504 25.3686 16.2203C25.3156 16.0903 25.2918 15.9509 25.2987 15.8113C25.3294 15.469 25.445 15.1389 25.6356 14.8487C25.8262 14.5585 26.0863 14.3167 26.3939 14.1438C26.6981 14.3162 26.9555 14.556 27.1446 14.8433C27.3337 15.1307 27.4492 15.4574 27.4815 15.7965C27.4905 15.9366 27.4686 16.0769 27.4171 16.2082C27.3656 16.3395 27.2858 16.4587 27.183 16.558C27.0802 16.6573 26.9566 16.7343 26.8206 16.784C26.6845 16.8336 26.5391 16.8548 26.3939 16.8461Z"/>
</svg>